<svg xmlns="http://www.w3.org/2000/svg">
    <symbol id="inst" viewBox="0 0 128 128">
        <g id="_x37__stroke">
            <g id="Instagram_1_">
                <rect clip-rule="evenodd" fill="none" fill-rule="evenodd" height="128" width="128" />
                <radialGradient cx="19.1111" cy="128.4444" gradientUnits="userSpaceOnUse"
                    id="Instagram_2_" r="163.5519">
                    <stop offset="0" style="stop-color:#FFB140" />
                    <stop offset="0.2559" style="stop-color:#FF5445" />
                    <stop offset="0.599" style="stop-color:#FC2B82" />
                    <stop offset="1" style="stop-color:#8E40B7" />
                </radialGradient>
                <path clip-rule="evenodd"
                    d="M105.843,29.837    c0,4.242-3.439,7.68-7.68,7.68c-4.241,0-7.68-3.438-7.68-7.68c0-4.242,3.439-7.68,7.68-7.68    C102.405,22.157,105.843,25.595,105.843,29.837z M64,85.333c-11.782,0-21.333-9.551-21.333-21.333    c0-11.782,9.551-21.333,21.333-21.333c11.782,0,21.333,9.551,21.333,21.333C85.333,75.782,75.782,85.333,64,85.333z M64,31.135    c-18.151,0-32.865,14.714-32.865,32.865c0,18.151,14.714,32.865,32.865,32.865c18.151,0,32.865-14.714,32.865-32.865    C96.865,45.849,82.151,31.135,64,31.135z M64,11.532c17.089,0,19.113,0.065,25.861,0.373c6.24,0.285,9.629,1.327,11.884,2.204    c2.987,1.161,5.119,2.548,7.359,4.788c2.24,2.239,3.627,4.371,4.788,7.359c0.876,2.255,1.919,5.644,2.204,11.884    c0.308,6.749,0.373,8.773,0.373,25.862c0,17.089-0.065,19.113-0.373,25.861c-0.285,6.24-1.327,9.629-2.204,11.884    c-1.161,2.987-2.548,5.119-4.788,7.359c-2.239,2.24-4.371,3.627-7.359,4.788c-2.255,0.876-5.644,1.919-11.884,2.204    c-6.748,0.308-8.772,0.373-25.861,0.373c-17.09,0-19.114-0.065-25.862-0.373c-6.24-0.285-9.629-1.327-11.884-2.204    c-2.987-1.161-5.119-2.548-7.359-4.788c-2.239-2.239-3.627-4.371-4.788-7.359c-0.876-2.255-1.919-5.644-2.204-11.884    c-0.308-6.749-0.373-8.773-0.373-25.861c0-17.089,0.065-19.113,0.373-25.862c0.285-6.24,1.327-9.629,2.204-11.884    c1.161-2.987,2.548-5.119,4.788-7.359c2.239-2.24,4.371-3.627,7.359-4.788c2.255-0.876,5.644-1.919,11.884-2.204    C44.887,11.597,46.911,11.532,64,11.532z M64,0C46.619,0,44.439,0.074,37.613,0.385C30.801,0.696,26.148,1.778,22.078,3.36    c-4.209,1.635-7.778,3.824-11.336,7.382C7.184,14.3,4.995,17.869,3.36,22.078c-1.582,4.071-2.664,8.723-2.975,15.535    C0.074,44.439,0,46.619,0,64c0,17.381,0.074,19.561,0.385,26.387c0.311,6.812,1.393,11.464,2.975,15.535    c1.635,4.209,3.824,7.778,7.382,11.336c3.558,3.558,7.127,5.746,11.336,7.382c4.071,1.582,8.723,2.664,15.535,2.975    C44.439,127.926,46.619,128,64,128c17.381,0,19.561-0.074,26.387-0.385c6.812-0.311,11.464-1.393,15.535-2.975    c4.209-1.636,7.778-3.824,11.336-7.382c3.558-3.558,5.746-7.127,7.382-11.336c1.582-4.071,2.664-8.723,2.975-15.535    C127.926,83.561,128,81.381,128,64c0-17.381-0.074-19.561-0.385-26.387c-0.311-6.812-1.393-11.464-2.975-15.535    c-1.636-4.209-3.824-7.778-7.382-11.336c-3.558-3.558-7.127-5.746-11.336-7.382c-4.071-1.582-8.723-2.664-15.535-2.975    C83.561,0.074,81.381,0,64,0z"
                    fill="url(#Instagram_2_)" fill-rule="evenodd" id="Instagram" />
            </g>
        </g>
    </symbol>
    <symbol id="tg" viewBox="0 0 48 48">
        <path
            d="M24 48C37.2548 48 48 37.2548 48 24C48 10.7452 37.2548 0 24 0C10.7452 0 0 10.7452 0 24C0 37.2548 10.7452 48 24 48Z"
            fill="url(#paint0_linear)" />
        <path
            d="M8.93822 25.174C11.7438 23.6286 14.8756 22.3388 17.8018 21.0424C22.836 18.919 27.8902 16.8324 32.9954 14.8898C33.9887 14.5588 35.7734 14.2351 35.9484 15.7071C35.8526 17.7907 35.4584 19.8621 35.188 21.9335C34.5017 26.4887 33.7085 31.0283 32.935 35.5685C32.6685 37.0808 30.774 37.8637 29.5618 36.8959C26.6486 34.9281 23.713 32.9795 20.837 30.9661C19.8949 30.0088 20.7685 28.6341 21.6099 27.9505C24.0093 25.5859 26.5539 23.5769 28.8279 21.0901C29.4413 19.6088 27.6289 20.8572 27.0311 21.2397C23.7463 23.5033 20.5419 25.9051 17.0787 27.8945C15.3097 28.8683 13.2479 28.0361 11.4797 27.4927C9.89428 26.8363 7.57106 26.175 8.93806 25.1741L8.93822 25.174Z"
            fill="white" />
        <defs>
            <linearGradient id="paint0_linear" x1="18.0028" y1="2.0016" x2="6.0028" y2="30"
                gradientUnits="userSpaceOnUse">
                <stop stop-color="#37AEE2" />
                <stop offset="1" stop-color="#1E96C8" />
            </linearGradient>
        </defs>
    </symbol>
    <symbol id="wa" viewBox="0 0 48 48">
        <path
            d="M24 48C37.2548 48 48 37.2548 48 24C48 10.7452 37.2548 0 24 0C10.7452 0 0 10.7452 0 24C0 37.2548 10.7452 48 24 48Z"
            fill="transparent" />
        <path fill-rule="evenodd" clip-rule="evenodd"
            d="M24.7911 37.3525H24.7852C22.3967 37.3517 20.0498 36.7524 17.9653 35.6154L10.4 37.6L12.4246 30.2048C11.1757 28.0405 10.5186 25.5855 10.5196 23.0702C10.5228 15.2017 16.9248 8.79999 24.7909 8.79999C28.6086 8.80164 32.1918 10.2879 34.8862 12.9854C37.5806 15.6828 39.0636 19.2683 39.0621 23.0815C39.059 30.9483 32.6595 37.3493 24.7911 37.3525ZM18.3159 33.0319L18.749 33.2889C20.5702 34.3697 22.6578 34.9415 24.7863 34.9423H24.7911C31.3288 34.9423 36.6499 29.6211 36.6525 23.0807C36.6538 19.9112 35.4212 16.9311 33.1817 14.689C30.9422 12.4469 27.964 11.2115 24.7957 11.2104C18.2529 11.2104 12.9318 16.5311 12.9292 23.0711C12.9283 25.3124 13.5554 27.4951 14.7427 29.3836L15.0248 29.8324L13.8265 34.2095L18.3159 33.0319ZM31.4924 26.154C31.7411 26.2742 31.9091 26.3554 31.9808 26.4751C32.0699 26.6238 32.0699 27.3378 31.7729 28.1708C31.4756 29.0038 30.051 29.764 29.3659 29.8663C28.7516 29.9582 27.9741 29.9965 27.1199 29.725C26.602 29.5607 25.9379 29.3413 25.0871 28.9739C21.7442 27.5304 19.485 24.2904 19.058 23.678C19.0281 23.6351 19.0072 23.6051 18.9955 23.5895L18.9927 23.5857C18.804 23.3339 17.5395 21.6468 17.5395 19.9008C17.5395 18.2582 18.3463 17.3973 18.7177 17.001C18.7432 16.9739 18.7666 16.9489 18.7875 16.926C19.1144 16.569 19.5007 16.4797 19.7384 16.4797C19.9761 16.4797 20.2141 16.4819 20.4219 16.4924C20.4475 16.4937 20.4742 16.4935 20.5017 16.4933C20.7095 16.4921 20.9686 16.4906 21.2242 17.1045C21.3225 17.3407 21.4664 17.691 21.6181 18.0604C21.9249 18.8074 22.264 19.6328 22.3236 19.7522C22.4128 19.9307 22.4722 20.1389 22.3533 20.3769C22.3355 20.4126 22.319 20.4463 22.3032 20.4785C22.2139 20.6608 22.1483 20.7948 21.9967 20.9718C21.9372 21.0413 21.8756 21.1163 21.814 21.1913C21.6913 21.3407 21.5687 21.4901 21.4619 21.5965C21.2833 21.7743 21.0975 21.9672 21.3055 22.3242C21.5135 22.6812 22.2292 23.8489 23.2892 24.7945C24.4288 25.8109 25.4192 26.2405 25.9212 26.4582C26.0192 26.5008 26.0986 26.5352 26.1569 26.5644C26.5133 26.7429 26.7213 26.713 26.9294 26.4751C27.1374 26.2371 27.8208 25.4338 28.0584 25.0769C28.2961 24.7201 28.5339 24.7795 28.8607 24.8984C29.1877 25.0176 30.9408 25.8801 31.2974 26.0586C31.367 26.0934 31.4321 26.1249 31.4924 26.154Z"
            fill="#FDFDFD" />
    </symbol>
</svg>
